<svg width="23" height="19" viewBox="0 0 23 19" fill="none" xmlns="http://www.w3.org/2000/svg">
<path d="M10.1751 2.81041C10.8175 4.56998 10.1616 6.34596 8.71063 6.78072C7.25965 7.21549 5.5616 6.14088 4.91922 4.38131C4.27684 2.62174 4.9327 0.845763 6.38367 0.410997C7.83465 -0.0237683 9.5327 1.05084 10.1751 2.81041ZM4.51043 7.14576C5.35946 8.47467 5.15281 10.021 4.05223 10.5952C2.95164 11.1694 1.37039 10.5583 0.525861 9.22936C-0.31867 7.90045 -0.121014 6.35416 0.979572 5.77994C2.08016 5.20572 3.66141 5.81686 4.50594 7.14576H4.51043ZM3.10887 15.4555C5.46278 9.66002 9.645 8.18756 11.5003 8.18756C13.3555 8.18756 17.5378 9.66002 19.8917 15.4555C20.0534 15.8534 20.1253 16.2799 20.1253 16.7065V16.7721C20.1253 17.8303 19.1864 18.6876 18.0274 18.6876C17.5108 18.6876 16.9987 18.6301 16.5001 18.5153L12.547 17.613C11.8596 17.4571 11.1409 17.4571 10.4536 17.613L6.50047 18.5153C6.00184 18.6301 5.48973 18.6876 4.97313 18.6876C3.81414 18.6876 2.87528 17.8303 2.87528 16.7721V16.7065C2.87528 16.2799 2.94715 15.8534 3.10887 15.4555ZM18.9483 10.5952C17.8477 10.021 17.6411 8.47467 18.4901 7.14576C19.3391 5.81686 20.9159 5.20572 22.0165 5.77994C23.1171 6.35416 23.3237 7.90045 22.4747 9.22936C21.6257 10.5583 20.0489 11.1694 18.9483 10.5952ZM13.9305 6.78072C12.4796 6.34596 11.8237 4.56998 12.4661 2.81041C13.1085 1.05084 14.8065 -0.0237683 16.2575 0.410997C17.7085 0.845763 18.3643 2.62174 17.722 4.38131C17.0796 6.14088 15.3815 7.21549 13.9305 6.78072Z" fill="#B3B3B3"/>
</svg>
