<svg width="19" height="16" viewBox="0 0 19 16" fill="none" xmlns="http://www.w3.org/2000/svg">
<path d="M10.6667 6H11.2901C12.0958 7.19688 13.6052 8 15.3333 8C15.7344 8 16.1281 7.95625 16.5 7.875V8V9V15C16.5 15.5531 15.9787 16 15.3333 16C14.688 16 14.1667 15.5531 14.1667 15V10.6L9.20834 14H11.25C11.8953 14 12.4167 14.4469 12.4167 15C12.4167 15.5531 11.8953 16 11.25 16H6.00001C4.06772 16 2.50001 14.6562 2.50001 13V6.01562C2.50001 5.5125 2.06251 5.08437 1.47918 5.02187L1.19116 4.99062C0.553135 4.92188 0.0974056 4.42188 0.177614 3.875C0.257822 3.32812 0.841156 2.9375 1.47918 3.00625L1.7672 3.0375C3.5172 3.225 4.83334 4.5 4.83334 6.01562V8.68125C6.08751 7.06562 8.23126 6 10.6667 6ZM16.5 6.82812C16.1354 6.9375 15.7417 7 15.3333 7C14.2979 7 13.3646 6.6125 12.7229 6C12.588 5.87187 12.4677 5.73438 12.362 5.5875C12.0266 5.125 11.8333 4.58125 11.8333 4V1V0.375V0.334375C11.8333 0.15 12.0047 0.003125 12.2198 0H12.2271C12.3474 0 12.4604 0.05 12.5333 0.13125C12.5333 0.13125 12.5333 0.13125 12.5333 0.134375L13 0.665625L13.9917 1.8L14.1667 2H16.5L16.675 1.8L17.6667 0.665625L18.1333 0.134375C18.1333 0.134375 18.1333 0.134375 18.1333 0.13125C18.2063 0.05 18.3193 0 18.4396 0H18.4469C18.662 0.003125 18.8333 0.15 18.8333 0.334375V0.375V1V4C18.8333 4.54063 18.6656 5.05 18.374 5.4875C17.962 6.10625 17.2948 6.5875 16.5 6.82812ZM14.75 4C14.75 3.86739 14.6886 3.74021 14.5792 3.64645C14.4698 3.55268 14.3214 3.5 14.1667 3.5C14.012 3.5 13.8636 3.55268 13.7542 3.64645C13.6448 3.74021 13.5833 3.86739 13.5833 4C13.5833 4.13261 13.6448 4.25979 13.7542 4.35355C13.8636 4.44732 14.012 4.5 14.1667 4.5C14.3214 4.5 14.4698 4.44732 14.5792 4.35355C14.6886 4.25979 14.75 4.13261 14.75 4ZM16.5 4.5C16.6547 4.5 16.8031 4.44732 16.9125 4.35355C17.0219 4.25979 17.0833 4.13261 17.0833 4C17.0833 3.86739 17.0219 3.74021 16.9125 3.64645C16.8031 3.55268 16.6547 3.5 16.5 3.5C16.3453 3.5 16.1969 3.55268 16.0875 3.64645C15.9781 3.74021 15.9167 3.86739 15.9167 4C15.9167 4.13261 15.9781 4.25979 16.0875 4.35355C16.1969 4.44732 16.3453 4.5 16.5 4.5Z" fill="#B3B3B3"/>
</svg>
