<svg width="24" height="21" viewBox="0 0 24 21" fill="none" xmlns="http://www.w3.org/2000/svg">
<path d="M2.23125 12.4946L10.7016 20.0729C11.0531 20.3874 11.5172 20.5626 12 20.5626C12.4828 20.5626 12.9469 20.3874 13.2984 20.0729L21.7687 12.4946C23.1938 11.2233 24 9.4399 24 7.57564V7.3151C24 4.17506 21.6328 1.49771 18.4031 0.981112C16.2656 0.639706 14.0906 1.30904 12.5625 2.7735L12 3.31256L11.4375 2.7735C9.90938 1.30904 7.73438 0.639706 5.59688 0.981112C2.36719 1.49771 0 4.17506 0 7.3151V7.57564C0 9.4399 0.80625 11.2233 2.23125 12.4946Z" fill="#B3B3B3"/>
</svg>
