<svg width="15" height="17" viewBox="0 0 15 17" fill="none" xmlns="http://www.w3.org/2000/svg">
<path d="M7.5 8.5C5.58482 8.5 3.96429 7.25488 3.41518 5.53496C3.37835 5.57812 3.34152 5.62129 3.29799 5.66113C2.76897 6.18574 1.99888 6.34844 1.50335 6.39492C1.23214 6.42148 1.01451 6.20566 1.04129 5.93672C1.08817 5.44863 1.25223 4.68164 1.78125 4.15703C1.97545 3.96445 2.20312 3.82168 2.4375 3.71211C2.20312 3.60586 1.97545 3.45977 1.78125 3.26719C1.25223 2.7459 1.09152 1.98223 1.04129 1.49082C1.01451 1.22188 1.23214 1.00605 1.50335 1.03262C1.99554 1.0791 2.76897 1.2418 3.29799 1.76641C3.45871 1.92578 3.58929 2.11172 3.68973 2.30098C4.39955 0.936328 5.83929 0 7.5 0C9.86719 0 11.7857 1.90254 11.7857 4.25C11.7857 6.59746 9.86719 8.5 7.5 8.5ZM0 16.0139C0 13.2646 1.88839 10.957 4.44643 10.2896C4.64732 10.2365 4.85491 10.3195 4.97879 10.4822L7.07143 13.248C7.28571 13.5303 7.71429 13.5303 7.92857 13.248L10.0212 10.4822C10.1451 10.3195 10.3527 10.2365 10.5536 10.2896C13.1116 10.957 15 13.2646 15 16.0139C15 16.5584 14.5547 17 14.0056 17H0.99442C0.445313 17 0 16.5584 0 16.0139ZM5.35714 3.1875C5.0625 3.1875 4.82143 3.42656 4.82143 3.71875C4.82143 4.01094 5.0625 4.25 5.35714 4.25H9.64286C9.9375 4.25 10.1786 4.01094 10.1786 3.71875C10.1786 3.42656 9.9375 3.1875 9.64286 3.1875H5.35714Z" fill="#B3B3B3"/>
</svg>
