<svg width="17" height="20" viewBox="0 0 17 20" fill="none" xmlns="http://www.w3.org/2000/svg">
<path d="M1.77526 18.2461L1.27943 18.5977C1.13776 18.6953 0.965104 18.75 0.788021 18.75C0.354167 18.75 0 18.4375 0 18.0547V7.5C0 3.35938 3.80729 0 8.5 0C13.1927 0 17 3.35938 17 7.5V18.0547C17 18.4375 16.6458 18.75 16.212 18.75C16.0349 18.75 15.8622 18.6953 15.7206 18.5977L15.2247 18.2461C14.6315 17.8281 13.7727 17.8945 13.2724 18.3984L11.9221 19.7656C11.776 19.9141 11.5591 20 11.3333 20C11.1076 20 10.8951 19.9141 10.7445 19.7656L9.56693 18.5742C9.00469 18.0039 7.99974 18.0039 7.43307 18.5742L6.25547 19.7656C6.10938 19.9141 5.89245 20 5.66667 20C5.44089 20 5.22838 19.9141 5.07786 19.7656L3.7276 18.3984C3.22734 17.8945 2.36849 17.8281 1.77526 18.2461ZM7.08333 7.5C7.08333 7.16848 6.93408 6.85054 6.6684 6.61612C6.40272 6.3817 6.04239 6.25 5.66667 6.25C5.29094 6.25 4.93061 6.3817 4.66493 6.61612C4.39926 6.85054 4.25 7.16848 4.25 7.5C4.25 7.83152 4.39926 8.14946 4.66493 8.38388C4.93061 8.6183 5.29094 8.75 5.66667 8.75C6.04239 8.75 6.40272 8.6183 6.6684 8.38388C6.93408 8.14946 7.08333 7.83152 7.08333 7.5ZM11.3333 8.75C11.7091 8.75 12.0694 8.6183 12.3351 8.38388C12.6007 8.14946 12.75 7.83152 12.75 7.5C12.75 7.16848 12.6007 6.85054 12.3351 6.61612C12.0694 6.3817 11.7091 6.25 11.3333 6.25C10.9576 6.25 10.5973 6.3817 10.3316 6.61612C10.0659 6.85054 9.91667 7.16848 9.91667 7.5C9.91667 7.83152 10.0659 8.14946 10.3316 8.38388C10.5973 8.6183 10.9576 8.75 11.3333 8.75Z" fill="#B3B3B3"/>
</svg>
