<svg width="22" height="24" viewBox="0 0 22 24" fill="none" xmlns="http://www.w3.org/2000/svg">
<path d="M7.82277 0.254296C8.2058 -0.0878743 8.8 -0.083187 9.18304 0.258984C10.5384 1.47299 11.8103 2.78073 12.9987 4.19629C13.5388 3.52132 14.1527 2.78542 14.8156 2.18545C15.2036 1.83859 15.8027 1.83859 16.1906 2.19014C17.8897 3.73694 19.3286 5.78059 20.3402 7.72112C21.3371 9.63352 22 11.5881 22 12.9662C22 18.9471 17.0991 24 11 24C4.83214 24 0 18.9424 0 12.9615C0 11.1616 0.874107 8.96324 2.22946 6.78835C3.59955 4.58065 5.53438 2.2792 7.82277 0.254296ZM11.0835 19.5002C12.3259 19.5002 13.4259 19.1721 14.4621 18.5159C16.5295 17.1378 17.0844 14.3817 15.842 12.2162C15.621 11.7944 15.0563 11.7662 14.7371 12.1225L13.4996 13.4958C13.1754 13.8521 12.5911 13.8427 12.2866 13.4724C11.4763 12.4881 10.0277 10.7303 9.20268 9.73195C8.8933 9.35697 8.30402 9.35228 7.98973 9.72727C6.32991 11.7194 5.49509 12.9755 5.49509 14.3864C5.5 17.5972 7.98482 19.5002 11.0835 19.5002Z" fill="white"/>
</svg>
